<svg width="24" height="24" viewBox="0 0 24 24" fill="none" xmlns="http://www.w3.org/2000/svg">
<path d="M3.44327 20.5577C2.85255 19.9679 2.85255 19.0117 3.44327 18.422L18.4177 3.47196C19.0085 2.8822 19.9662 2.8822 20.557 3.47196C21.1477 4.06172 21.1477 5.01791 20.557 5.60767L5.58248 20.5577C4.99176 21.1474 4.034 21.1474 3.44327 20.5577Z" fill="#2A79CC"/>
<path d="M3.44304 3.44232C4.03377 2.85256 4.99153 2.85256 5.58226 3.44232L20.5567 18.3923C21.1475 18.9821 21.1475 19.9383 20.5567 20.528C19.966 21.1178 19.0082 21.1178 18.4175 20.528L3.44304 5.57804C2.85232 4.98827 2.85232 4.03208 3.44304 3.44232Z" fill="#2A79CC"/>
</svg>
