<svg width="24" height="24" viewBox="0 0 24 24" fill="none" xmlns="http://www.w3.org/2000/svg">
<path d="M8.45211 20.5532C7.8493 19.9576 7.8493 18.9918 8.45211 18.3961L15.3649 11.565C15.9677 10.9693 16.9451 10.9693 17.5479 11.565C18.1507 12.1607 18.1507 13.1265 17.5479 13.7222L10.6351 20.5532C10.0323 21.1489 9.05492 21.1489 8.45211 20.5532Z" fill="#2A79CC"/>
<path d="M8.45213 4.44676C9.05494 3.85108 10.0323 3.85108 10.6351 4.44676L17.5479 11.2778C18.1507 11.8735 18.1507 12.8393 17.5479 13.435C16.9451 14.0307 15.9677 14.0307 15.3649 13.435L8.45213 6.60393C7.84931 6.00825 7.84931 5.04245 8.45213 4.44676Z" fill="#2A79CC"/>
</svg>
