<svg width="24" height="24" viewBox="0 0 24 24" fill="none" xmlns="http://www.w3.org/2000/svg">
<path d="M15.5479 20.5532C16.1507 19.9576 16.1507 18.9918 15.5479 18.3961L8.63511 11.565C8.0323 10.9693 7.05494 10.9693 6.45213 11.565C5.84931 12.1607 5.84931 13.1265 6.45213 13.7222L13.3649 20.5532C13.9677 21.1489 14.9451 21.1489 15.5479 20.5532Z" fill="#2A79CC"/>
<path d="M15.5479 4.44676C14.9451 3.85108 13.9677 3.85108 13.3649 4.44676L6.45211 11.2778C5.8493 11.8735 5.8493 12.8393 6.45211 13.435C7.05492 14.0307 8.03228 14.0307 8.63509 13.435L15.5479 6.60393C16.1507 6.00825 16.1507 5.04245 15.5479 4.44676Z" fill="#2A79CC"/>
</svg>
