<svg width="24" height="24" viewBox="0 0 24 24" fill="none" xmlns="http://www.w3.org/2000/svg">
<path d="M23 8.43513C22.9719 9.8678 22.5224 11.1365 21.5392 12.1591C18.8283 14.9811 16.1034 17.7885 13.3785 20.6008C12.8588 21.1363 12.1471 21.1314 11.6274 20.596C8.93057 17.803 6.215 15.0293 3.54158 12.2122C2.08079 10.6686 1.64068 8.79691 2.29616 6.74196C2.96101 4.66772 4.40775 3.44729 6.49124 3.08068C8.9493 2.65136 11.3886 4.19498 12.222 6.65513C12.2267 6.66478 12.2267 6.66961 12.2267 6.67925C12.2735 6.82397 12.3157 6.97833 12.5123 6.97351C12.6949 6.96868 12.737 6.82397 12.7792 6.68408C12.9899 6.03768 13.2942 5.43953 13.7343 4.93303C15.1764 3.27363 16.9789 2.63689 19.0718 3.20127C21.1834 3.77048 22.4522 5.24658 22.9064 7.45107C22.9719 7.77426 23 8.10228 23 8.43513Z" fill="#2A79CC"/>
</svg>
