<svg width="191" height="107" viewBox="0 0 191 107" fill="none" xmlns="http://www.w3.org/2000/svg">
<g clip-path="url(#clip0_873_4055)">
<path fill-rule="evenodd" clip-rule="evenodd" d="M124.126 79.374H125.203C126.95 79.374 128.454 79.0447 129.714 78.3863C130.974 77.7278 131.937 76.8037 132.603 75.6139C133.28 74.4125 133.619 72.9974 133.619 71.3686C133.619 69.7514 133.28 68.319 132.603 67.0714C131.937 65.8122 130.974 64.8246 129.714 64.1084C128.454 63.3922 126.95 63.0341 125.203 63.0341H116.359V67.658L124.126 79.374ZM121.566 67.2447V75.1634H125.203C125.94 75.1634 126.54 75.0016 127.004 74.6782C127.479 74.3547 127.824 73.91 128.038 73.344C128.252 72.7664 128.359 72.1195 128.359 71.4033C128.359 70.6755 128.246 69.9997 128.02 69.3759C127.806 68.7406 127.468 68.2266 127.004 67.8338C126.552 67.441 125.952 67.2447 125.203 67.2447H121.566ZM151.166 88.2803V84.0871H141.502V77.3466H149.65V73.2747H141.502V67.262H151.13V63.0514H141.502H139.879H136.278V88.2803H139.879H141.502H151.166ZM166.589 79.8765H171.777C171.706 81.7709 171.314 83.3709 170.601 84.6762C169.887 85.97 168.871 86.9519 167.552 87.6219C166.244 88.2919 164.663 88.6269 162.809 88.6269C161.371 88.6269 160.093 88.3959 158.975 87.9338C157.858 87.4602 156.907 86.7671 156.123 85.8545C155.338 84.9419 154.744 83.8156 154.34 82.4756C153.947 81.124 153.751 79.5703 153.751 77.8145V73.5346C153.751 71.7787 153.959 70.225 154.375 68.8734C154.803 67.5219 155.409 66.3898 156.194 65.4772C156.99 64.5531 157.947 63.86 159.065 63.3979C160.194 62.9243 161.466 62.6875 162.88 62.6875C164.77 62.6875 166.351 63.0341 167.623 63.7272C168.895 64.4203 169.876 65.431 170.565 66.7595C171.266 68.0764 171.688 69.6878 171.831 71.5939H166.625C166.589 70.3925 166.446 69.451 166.197 68.7695C165.959 68.0764 165.579 67.5912 165.055 67.314C164.532 67.0252 163.807 66.8808 162.88 66.8808C162.191 66.8808 161.596 67.0021 161.097 67.2447C160.598 67.4757 160.188 67.8511 159.867 68.3709C159.546 68.8908 159.308 69.5723 159.154 70.4156C159.011 71.2589 158.94 72.287 158.94 73.4999V77.8145C158.94 79.0043 159.005 80.0209 159.136 80.8641C159.267 81.6959 159.475 82.3774 159.76 82.9088C160.045 83.4402 160.432 83.8272 160.919 84.0697C161.418 84.3123 162.048 84.4336 162.809 84.4336C163.689 84.4336 164.396 84.3065 164.931 84.0524C165.477 83.7983 165.882 83.342 166.143 82.6835C166.405 82.0251 166.553 81.0894 166.589 79.8765ZM184.847 88.2803V67.262H191.301V63.0514H184.847H179.658H173.329V67.262H179.658V88.2803H184.847Z" fill="#2A79CC"/>
<path fill-rule="evenodd" clip-rule="evenodd" d="M21.1881 107L81.9274 15.4868L116.361 67.3663V88.2624H121.567V79.3733H124.33L142.667 107H21.1881ZM0 107L70.6271 0L77.6898 9.85526L12.7129 107H0ZM62.8348 77.7619H69.1931C69.161 78.5515 69.098 79.2735 69.0041 79.9278C68.8614 80.9097 68.6356 81.7357 68.3265 82.4057C68.0175 83.0757 67.6014 83.5839 67.0784 83.9305C66.5673 84.2655 65.9373 84.433 65.1884 84.433C64.3326 84.433 63.6372 84.2655 63.1023 83.9305C62.5674 83.5839 62.1692 83.0699 61.9077 82.3883C61.6462 81.7068 61.4857 80.8635 61.4263 79.8585H56.2377C56.3328 81.5682 56.7369 83.0872 57.4501 84.4157C58.1752 85.7326 59.1856 86.7664 60.4813 87.5173C61.7769 88.2566 63.346 88.6263 65.1884 88.6263C66.6267 88.6263 67.9105 88.349 69.0397 87.7945C70.1809 87.2285 71.1496 86.4199 71.946 85.3687C72.7543 84.3059 73.3665 83.0295 73.7825 81.5393C74.1986 80.0376 74.4066 78.351 74.4066 76.4796V74.8508C74.4066 72.9795 74.1926 71.2987 73.7647 69.8085C73.3368 68.3068 72.7127 67.0303 71.8925 65.9791C71.0724 64.9164 70.0917 64.102 68.9506 63.5359C67.8094 62.9699 66.5376 62.6869 65.1349 62.6869C63.2449 62.6869 61.664 63.0739 60.3921 63.8478C59.1321 64.6102 58.1514 65.6614 57.4501 67.0014C56.7607 68.3414 56.3447 69.872 56.202 71.5933H61.4084C61.4441 70.5998 61.5808 69.7565 61.8185 69.0634C62.0681 68.3588 62.4545 67.8216 62.9775 67.452C63.5124 67.0823 64.2375 66.8975 65.1528 66.8975C65.6995 66.8975 66.1928 67.0014 66.6327 67.2094C67.0725 67.4173 67.4528 67.7292 67.7738 68.1451C68.1066 68.5609 68.3741 69.0865 68.5761 69.7219C68.7901 70.3457 68.9506 71.085 69.0576 71.9398C69.1206 72.4368 69.1651 72.974 69.191 73.5513H62.8348V77.7619ZM83.1434 84.0691V77.2594H86.6737H86.6916C87.3572 77.2594 87.8862 77.4038 88.2785 77.6926C88.6707 77.9698 88.9501 78.3741 89.1165 78.9055C89.2948 79.4369 89.3839 80.0607 89.3839 80.7769C89.3839 81.4122 89.2888 81.9782 89.0986 82.475C88.9085 82.9601 88.5994 83.3471 88.1715 83.6359C87.7436 83.9247 87.1849 84.0691 86.4954 84.0691H83.1434ZM91.5414 74.9548C91.3665 75.0621 91.1812 75.1603 90.9855 75.2495C91.4632 75.3801 91.8863 75.5706 92.2546 75.8212C93.0867 76.3757 93.681 77.1034 94.0376 78.0045C94.4061 78.8939 94.5903 79.8412 94.5903 80.8462C94.5903 82.4634 94.2753 83.8265 93.6453 84.9355C93.0272 86.0329 92.1179 86.8646 90.9173 87.4307C89.7168 87.9851 88.2428 88.2624 86.4954 88.2624H83.1434H79.8805H77.9191V63.0334H85.9249C87.2205 63.0334 88.3795 63.172 89.4018 63.4493C90.424 63.7265 91.2917 64.1482 92.005 64.7142C92.7182 65.2802 93.259 65.9964 93.6275 66.8628C94.0079 67.7292 94.1981 68.7515 94.1981 69.9298C94.1981 70.9695 93.9841 71.9283 93.5562 72.8062C93.1283 73.6841 92.4567 74.4003 91.5414 74.9548ZM87.6187 73.2394C87.167 73.4704 86.5846 73.5859 85.8714 73.5859H83.1434V67.244H85.9249C86.65 67.244 87.2384 67.3538 87.6901 67.5732C88.1418 67.7927 88.4686 68.1393 88.6707 68.6129C88.8728 69.075 88.9738 69.693 88.9738 70.467C88.9738 71.137 88.8609 71.7088 88.6351 72.1824C88.4211 72.6445 88.0823 72.9968 87.6187 73.2394ZM113.312 88.2624V84.0691H103.648V77.3287H111.796V73.2567H103.648V67.244H115.106L112.404 63.0508L103.648 63.0361V63.0334H102.025H98.4238V88.2624H102.025H103.648H113.312Z" fill="#2A79CC"/>
<mask id="mask0_873_4055" style="mask-type:alpha" maskUnits="userSpaceOnUse" x="0" y="0" width="143" height="107">
<path d="M81.9274 15.4868L21.1881 107H142.667L81.9274 15.4868ZM70.6271 0L0 107H12.7129L77.6898 9.85526L70.6271 0Z" fill="#2A79CC"/>
</mask>
<g mask="url(#mask0_873_4055)">
<path d="M71.965 73.5519V77.7625H62.8359V73.5519H71.965ZM56.2388 79.8591H61.4274C61.4868 80.8641 61.6473 81.7074 61.9088 82.389C62.1703 83.0705 62.5685 83.5846 63.1034 83.9311C63.6383 84.2661 64.3337 84.4336 65.1895 84.4336C65.9384 84.4336 66.5684 84.2661 67.0795 83.9311C67.6025 83.5846 68.0186 83.0763 68.3276 82.4063C68.6367 81.7363 68.8625 80.9103 69.0052 79.9284C69.1478 78.935 69.2191 77.7856 69.2191 76.4803V74.8168C69.2191 73.7425 69.1656 72.7837 69.0587 71.9404C68.9517 71.0856 68.7912 70.3463 68.5772 69.7225C68.3752 69.0872 68.1077 68.5616 67.7749 68.1457C67.4539 67.7298 67.0736 67.4179 66.6338 67.21C66.194 67.0021 65.7007 66.8981 65.1539 66.8981C64.2386 66.8981 63.5135 67.0829 62.9786 67.4526C62.4556 67.8222 62.0692 68.3594 61.8196 69.0641C61.5819 69.7572 61.4452 70.6004 61.4095 71.5939H56.2031C56.3458 69.8727 56.7618 68.3421 57.4512 67.0021C58.1526 65.6621 59.1332 64.6109 60.3932 63.8484C61.6651 63.0745 63.246 62.6875 65.136 62.6875C66.5387 62.6875 67.8106 62.9705 68.9517 63.5366C70.0928 64.1026 71.0735 64.917 71.8937 65.9797C72.7138 67.0309 73.3379 68.3074 73.7658 69.8091C74.1937 71.2993 74.4077 72.9801 74.4077 74.8515V76.4803C74.4077 78.3516 74.1997 80.0382 73.7837 81.5399C73.3676 83.0301 72.7554 84.3065 71.9471 85.3693C71.1507 86.4205 70.182 87.2291 69.0408 87.7952C67.9116 88.3497 66.6278 88.6269 65.1895 88.6269C63.3471 88.6269 61.778 88.2572 60.4824 87.5179C59.1867 86.7671 58.1763 85.7332 57.4512 84.4163C56.738 83.0878 56.3339 81.5688 56.2388 79.8591Z" fill="white"/>
<path d="M86.6748 77.26H81.3615L81.3436 73.5866H85.8725C86.5857 73.5866 87.1681 73.471 87.6198 73.24C88.0834 72.9974 88.4222 72.6451 88.6362 72.183C88.862 71.7094 88.9749 71.1376 88.9749 70.4676C88.9749 69.6936 88.8739 69.0756 88.6718 68.6135C88.4697 68.1399 88.1429 67.7934 87.6912 67.5739C87.2395 67.3544 86.6511 67.2447 85.926 67.2447H83.1445V88.263H77.9202V63.0341H85.926C87.2216 63.0341 88.3806 63.1727 89.4029 63.4499C90.4251 63.7272 91.2929 64.1488 92.0061 64.7148C92.7193 65.2809 93.2601 65.9971 93.6286 66.8634C94.009 67.7298 94.1992 68.7522 94.1992 69.9304C94.1992 70.9701 93.9852 71.9289 93.5573 72.8068C93.1294 73.6847 92.4578 74.4009 91.5425 74.9554C90.6391 75.5099 89.4564 75.8218 87.9943 75.8911L86.6748 77.26ZM86.4965 88.263H79.8816L81.9677 84.0697H86.4965C87.186 84.0697 87.7447 83.9253 88.1726 83.6365C88.6005 83.3478 88.9096 82.9608 89.0998 82.4756C89.2899 81.9789 89.385 81.4128 89.385 80.7775C89.385 80.0613 89.2959 79.4375 89.1176 78.9061C88.9512 78.3747 88.6718 77.9704 88.2796 77.6932C87.8873 77.4044 87.3583 77.26 86.6927 77.26H82.1995L82.2351 73.5866H87.6912L88.9214 75.0421C90.3122 74.9959 91.4236 75.2558 92.2557 75.8218C93.0878 76.3763 93.6821 77.104 94.0387 78.0051C94.4072 78.8946 94.5914 79.8418 94.5914 80.8468C94.5914 82.464 94.2764 83.8272 93.6464 84.9361C93.0283 86.0335 92.119 86.8653 90.9184 87.4313C89.7179 87.9858 88.2439 88.263 86.4965 88.263Z" fill="white"/>
<path d="M113.313 84.0697V88.263H102.027V84.0697H113.313ZM103.649 63.0341V88.263H98.4249V63.0341H103.649ZM111.798 73.2573V77.3293H102.027V73.2573H111.798ZM112.405 63.0514L115.107 67.2447H102.027V63.0341L112.405 63.0514Z" fill="white"/>
<path d="M125.206 79.374H119.892V75.1634H125.206C125.943 75.1634 126.543 75.0016 127.007 74.6782C127.482 74.3547 127.827 73.91 128.041 73.344C128.255 72.7664 128.362 72.1195 128.362 71.4033C128.362 70.6755 128.249 69.9997 128.023 69.3759C127.809 68.7406 127.47 68.2266 127.007 67.8338C126.555 67.441 125.955 67.2447 125.206 67.2447H121.568V88.263H116.362V63.0341H125.206C126.953 63.0341 128.457 63.3922 129.717 64.1084C130.977 64.8246 131.94 65.8122 132.605 67.0714C133.283 68.319 133.622 69.7514 133.622 71.3686C133.622 72.9974 133.283 74.4125 132.605 75.6139C131.94 76.8037 130.977 77.7278 129.717 78.3863C128.457 79.0447 126.953 79.374 125.206 79.374Z" fill="white"/>
<path d="M151.168 84.0871V88.2803H139.882V84.0871H151.168ZM141.505 63.0514V88.2803H136.28V63.0514H141.505ZM149.653 73.2747V77.3466H139.882V73.2747H149.653ZM151.133 63.0514V67.262H139.882V63.0514H151.133Z" fill="white"/>
<path d="M166.592 79.8765H171.78C171.709 81.7709 171.317 83.3709 170.603 84.6762C169.89 85.97 168.874 86.9519 167.554 87.6219C166.247 88.2919 164.666 88.6269 162.812 88.6269C161.373 88.6269 160.095 88.3959 158.978 87.9338C157.861 87.4602 156.91 86.7671 156.125 85.8545C155.341 84.9419 154.746 83.8156 154.342 82.4756C153.95 81.124 153.754 79.5703 153.754 77.8145V73.5346C153.754 71.7787 153.962 70.225 154.378 68.8734C154.806 67.5219 155.412 66.3898 156.197 65.4772C156.993 64.5531 157.95 63.86 159.067 63.3979C160.196 62.9243 161.468 62.6875 162.883 62.6875C164.773 62.6875 166.354 63.0341 167.626 63.7272C168.898 64.4203 169.878 65.431 170.568 66.7595C171.269 68.0764 171.691 69.6878 171.834 71.5939H166.627C166.592 70.3925 166.449 69.451 166.199 68.7695C165.962 68.0764 165.581 67.5912 165.058 67.314C164.535 67.0252 163.81 66.8808 162.883 66.8808C162.193 66.8808 161.599 67.0021 161.1 67.2447C160.601 67.4757 160.191 67.8511 159.87 68.3709C159.549 68.8908 159.311 69.5723 159.156 70.4156C159.014 71.2589 158.942 72.287 158.942 73.4999V77.8145C158.942 79.0043 159.008 80.0209 159.139 80.8641C159.269 81.6959 159.477 82.3774 159.763 82.9088C160.048 83.4402 160.434 83.8272 160.922 84.0697C161.421 84.3123 162.051 84.4336 162.812 84.4336C163.691 84.4336 164.398 84.3065 164.933 84.0524C165.48 83.7983 165.884 83.342 166.146 82.6835C166.407 82.0251 166.556 81.0894 166.592 79.8765Z" fill="white"/>
<path d="M184.85 63.0514V88.2803H179.661V63.0514H184.85ZM191.304 63.0514V67.262H173.331V63.0514H191.304Z" fill="white"/>
</g>
</g>
<defs>
<clipPath id="clip0_873_4055">
<rect width="191" height="107" fill="white"/>
</clipPath>
</defs>
</svg>
