<svg id="Layer_2" data-name="Layer 2" xmlns="http://www.w3.org/2000/svg" viewBox="0 0 43.93 7.3"><defs><style>.cls-1{fill:#2a79cc;}.cls-2{fill:#878c9e;}</style></defs><path class="cls-1" d="M4.36.39h.17A4.28,4.28,0,0,1,7,1.2a1.27,1.27,0,0,1,.47.88c0,.64-.66,1.61-2,2.91a10.85,10.85,0,0,1-2.1,1.22,5.37,5.37,0,0,0-1.48.57l-.38,0a2.77,2.77,0,0,1-.77.3l0,0,.1-.17h0l-.2.06,0-.2.07-.13h0l-.17.06,0,0v0l0-.1h0l-.14,0c-.07,0-.1,0-.1-.13S0,6.33,0,6.27A1.38,1.38,0,0,1,.44,6,8.08,8.08,0,0,0,2,3.23a9.44,9.44,0,0,0,.61-1.59c-.41,0-.73-.27-1-.81C1.69.64,2.58.49,4.36.39ZM2.88,4.92C4.79,4,5.75,3.18,5.75,2.39c0-.53-.42-.85-1.25-1-.17,0-.29.2-.38.6Z"/><path class="cls-1" d="M11.61.32a.13.13,0,0,0,.14.14V.52h-.11v0c.12,0,.17,0,.17.06v0h-.13c0,.07.07.1.2.1V.83h-.1v0h.4l.3.17,0,0v0c.11,0,.17,0,.17.07s-.42.17-1.24.27a5.61,5.61,0,0,0-1.61.47l-.37.74h0a4.5,4.5,0,0,1,1-.1l.07.1-.1,0v0c.18,0,.27,0,.27.07l-.17.07v0h.07l0,.1q0,.16.27.27v0l0,0v0c.11,0,.17,0,.17.07v0A9.07,9.07,0,0,1,8.86,4c-.17,0-.4.33-.67,1l2.42-.4v.07h0l.17,0c0,.12.08.17.17.17v.1a.26.26,0,0,0-.17.1h-.07V5h.2v.07h-.17l0,0v0l0,0c.33,0,.51.06.54.17l0,0c.11,0,.17.05.17.1a8.52,8.52,0,0,1-2,.5c-1.34.22-2,.43-2,.6a.49.49,0,0,1-.3.3h0l-.2-.16H6.82l-.17,0c0-.06-.11-.11-.33-.17l-.11,0,0,0v0l0-.1H6.15l0,0h0l0,0v0A54.46,54.46,0,0,1,8.53.79c0-.22.15-.35.47-.4l1.3,0Z"/><path class="cls-1" d="M16.36.28h0c.17,0,.26,0,.26.07l0,0h0c.41.27.62.5.62.69A8,8,0,0,1,16,2.09L14.26,3.75a6.41,6.41,0,0,1,.94,2.5,1.81,1.81,0,0,1-.15.58H15l-.25,0,0,0v0l-.44.15,0-.18,0,0h0a6.76,6.76,0,0,1-.43-1.12l-.54-1c-.17.15-.26.24-.26.29l-.29.11,0,0v0L11.51,6.32A4.22,4.22,0,0,0,11,7l-.25.07c-.14,0-.21-.1-.21-.14l0,0h-.07l-.15-.11,0,0a1.75,1.75,0,0,1-.47-.4V6.39c0-.29,1-1.27,2.86-2.93l0,0v0a13.93,13.93,0,0,1-.36-1.92,1.43,1.43,0,0,1,.4-1.09h.4a.89.89,0,0,1,.79.44V1l-.07.5,0,0,0,.18,0,.22h0l.07.29L15.93.42A.9.9,0,0,1,16.36.28Z"/><path class="cls-1" d="M20.59,0l.7,0H22a.31.31,0,0,1,.3.18l0,0c.12,0,.18,0,.18.11v0H22v0h.15V.52h-.07l0,0,0,0V.66l.18,0v0l0,0v0c.15,0,.22.1.22.3.1,0,.15,0,.15.1v.08l-2.17.26c-.19,0-.34.23-.45.7-1.29,2.52-2.07,4.13-2.32,4.82-.15.15-.27.23-.37.23l-.15-.15C17,7.15,17,7.09,17,7l0,0h0c0-.06-.13-.17-.37-.33l-.11-.19c0-.49.59-1.8,1.77-3.94l.3-.7-1.37.22a1,1,0,0,1-1-.7L16,.92V.85a.56.56,0,0,1,.29-.44h.48A30.46,30.46,0,0,0,20.59,0Z"/><path class="cls-2" d="M25.06.32c0,.09,0,.14.13.14V.52h-.1v0c.11,0,.17,0,.17.06v0h-.14c0,.07.07.1.2.1V.83h-.1v0h.4l.31.17,0,0v0c.12,0,.17,0,.17.07s-.41.17-1.24.27a5.69,5.69,0,0,0-1.61.47l-.37.74h0a4.42,4.42,0,0,1,1-.1l.06.1-.1,0v0c.18,0,.27,0,.27.07L24,2.84v0h.07L24,3c0,.11.09.2.26.27v0l0,0v0c.11,0,.17,0,.17.07v0A8.86,8.86,0,0,1,22.31,4c-.18,0-.4.33-.68,1l2.42-.4v.07h0l.17,0c0,.12.09.17.17.17v.1a.28.28,0,0,0-.17.1h-.07V5h.21v.07h-.17l0,0v0l0,0c.33,0,.51.06.53.17l0,0c.11,0,.17.05.17.1a8.52,8.52,0,0,1-2,.5c-1.34.22-2,.43-2,.6a.54.54,0,0,1-.31.3h0l-.2-.16h-.07l-.17,0c0-.06-.11-.11-.33-.17l-.1,0,0,0v0l0-.1h-.07l0,0h0l0,0v0A54.46,54.46,0,0,1,22,.79c0-.22.16-.35.47-.4l1.31,0Z"/><path class="cls-2" d="M28.11.09h.3c1.52,0,2.42.49,2.69,1.49l0,.21v.1c0,.3-.69.8-2.05,1.5a15.64,15.64,0,0,1,.51,3l0,0v0l0,.11,0,.3,0,0h-.06c0-.1,0-.14-.07-.14s0,.1-.07.1h-.07l0,0h0c0,.09-.06.13-.1.13L29,7,28.92,7c0-.12-.07-.17-.17-.17a19.05,19.05,0,0,1-.95-2.93l-1.53.51c-.14.32-.25.5-.34.54l0,.18h-.1l.13-.38v0h0l-.17.37.07.07c-.09,0-.26.24-.52.71a1.45,1.45,0,0,0-.2.45s-.16.22-.34.68h0c0-.11-.12-.2-.34-.28l-.07.07s0-.07-.11-.07l-.1,0c-.05-.12-.11-.19-.2-.2V6.48q0-.83,1.87-4.56c-.48-.32-.71-.58-.71-.78V1c0-.12.43-.32,1.25-.61C26.42.18,27,.09,28.11.09ZM27,2.77h.07a7.79,7.79,0,0,0,2.48-1.39v0l-.68,0h-.07c-.86,0-1.29.1-1.29.31A7.52,7.52,0,0,1,27,2.77Z"/><path class="cls-2" d="M31.94.4h.21a1.13,1.13,0,0,1,1,.58v.14a7.93,7.93,0,0,1-.68,1.22L30.89,5.62a2.39,2.39,0,0,1-.43.65l0,0h0l-.08.18h-.07l.07-.25-.39.64h0l0,0v0l0,0V6.62h0L29.71,7h-.08v0l.08-.18-.58.47L29,7.13l0,0V7L29,7.05,28.88,7A49.4,49.4,0,0,1,31.47.83C31.57.55,31.73.4,31.94.4Z"/><path class="cls-2" d="M36.34,0,37,0h.7a.31.31,0,0,1,.3.18l0,0c.12,0,.18,0,.18.11v0h-.4v0h.14V.52h-.07l0,0,0,0V.66L38,.7v0l0,0v0c.15,0,.22.1.22.3.1,0,.15,0,.15.1v.08l-2.18.26c-.18,0-.33.23-.44.7-1.29,2.52-2.07,4.13-2.32,4.82-.15.15-.27.23-.37.23l-.15-.15c-.14,0-.22-.06-.22-.19l0,0h0c0-.06-.13-.17-.37-.33l-.11-.19c0-.49.59-1.8,1.77-3.94l.3-.7-1.37.22a1,1,0,0,1-1-.7L31.7.92V.85A.56.56,0,0,1,32,.41h.48A30.46,30.46,0,0,0,36.34,0Z"/><path class="cls-2" d="M43.11.24h.14c.18,0,.41.16.68.5V.88a52.74,52.74,0,0,1-4.86,4.47c0,.09-.06.14-.18.14s-.26.36-.78.86a2.08,2.08,0,0,0-.65.89l-.18,0a.49.49,0,0,1-.35-.15l-.07.08c0-.15-.17-.22-.4-.22l-.25-.28V6.63c0-.37.89-1.28,2.65-2.75a4,4,0,0,0,.71-.82A3.73,3.73,0,0,1,38.21.77V.56a.79.79,0,0,1,.61-.21H39c.44,0,.78.33,1,1a1.64,1.64,0,0,0,.58,1A19.78,19.78,0,0,0,42.36.49,1.48,1.48,0,0,1,43.11.24Z"/></svg>